<svg width="80" height="70" viewBox="0 0 80 70" fill="none" xmlns="http://www.w3.org/2000/svg">
<g clip-path="url(#clip0_36_2328)">
<path d="M51.7632 15.0022V15.7999C53.9438 16.5853 54.2764 18.3285 54.2702 22.9391L54.2179 57.1753C54.2117 61.0991 57.3871 64.2837 61.3078 64.2899H61.7667L61.8314 22.9514C61.8376 18.2761 62.1733 16.5421 64.4216 15.7783V15.0207L51.7601 15.0022H51.7632Z" fill="#272963"/>
<path d="M25.9572 25.7387C24.2294 26.3824 22.634 27.3465 21.2603 28.5753C19.9698 29.7457 18.9258 31.1655 18.1927 32.7486C16.6466 36.3213 16.7175 40.3868 18.3899 43.904C19.2676 45.6626 20.5427 47.1903 22.1165 48.3729C23.7366 49.6573 26.7241 51.4652 31.0791 53.7936C32.7607 54.6621 34.3961 55.6169 35.9792 56.6517C37.245 57.4494 38.44 58.358 39.5488 59.3589C40.3064 60.015 40.9193 60.8188 41.3474 61.7212C41.6708 62.4758 41.8341 63.2889 41.8341 64.1082C41.8341 65.0444 41.6154 65.9653 41.1873 66.7969C40.7438 67.6654 40.1463 68.4447 39.4194 69.0976C39.0498 69.4302 38.6464 69.7259 38.2213 69.9846C48.0031 70.3142 50.1714 62.2787 46.8235 56.4361C44.8709 53.0236 40.4266 50.6829 37.091 48.6501C35.9638 47.9633 35.7482 47.8186 34.5347 47.0855C33.3212 46.3556 32.2063 45.6934 31.1622 45.0805C30.1335 44.4615 29.2588 43.9317 28.532 43.5005C27.8051 43.057 27.3616 42.7829 27.1891 42.6844C25.9849 41.7881 24.9778 40.6578 24.2201 39.3611C23.6072 38.2863 23.2807 37.0759 23.2684 35.8377C23.2684 34.8337 23.4902 33.845 23.9152 32.9365C24.3556 32.0002 24.9839 31.1624 25.7662 30.4756C26.6378 29.7365 27.645 29.1698 28.7291 28.8094C29.998 28.3782 31.3254 28.1688 32.6652 28.1842C35.0583 28.1534 37.4206 28.717 39.5395 29.8258C40.5159 30.3278 41.4244 30.9438 42.2529 31.6614C43.0198 32.3297 43.6789 33.1151 44.2056 33.9806C44.7939 34.9815 45.2528 36.0564 45.5761 37.1713C46.0135 38.6312 46.3554 40.1157 46.5987 41.6218H48.1756L48.2033 24.7193H46.6233C46.574 25.4893 46.3122 26.2315 45.8626 26.8598C45.5022 27.2263 45.0002 27.4173 44.4889 27.3865C43.9746 27.3464 43.4633 27.2541 42.9706 27.1001C42.2683 26.8999 41.3659 26.6227 40.2541 26.2962C37.2481 25.4061 34.507 24.6608 31.6612 24.6546C29.8317 24.6546 27.9591 24.9564 25.9479 25.7295" fill="#272963"/>
<path d="M18.0788 0.0277191L1.00998 0V0.825414C1.63828 1.07797 2.17418 1.37364 2.58689 1.86334C3.25831 2.67951 3.5817 5.44835 3.57862 8.29417L3.52318 42.5304C3.5201 45.1729 3.24599 48.0742 2.71625 48.8472C2.28506 49.4817 1.67832 49.7774 0.932983 50.0823V50.8184L13.2187 50.8368C12.9754 50.4549 12.7506 50.0576 12.5473 49.6511C12.0976 48.7456 11.7619 47.7877 11.5525 46.7991C11.2322 45.4039 11.0936 43.9718 11.149 42.5427L11.1798 24.3158L11.2137 3.07066C13.2495 2.54708 15.3469 2.29453 17.4474 2.32225C19.3785 2.29761 21.3004 2.57172 23.1483 3.13534C24.6451 3.58501 26.0434 4.3211 27.2631 5.30051C28.3195 6.15056 29.1695 7.23161 29.7455 8.46357C31.2269 11.6728 30.9589 15.5874 28.2856 18.0297C32.8993 21.4269 35.9576 20.004 37.205 16.573C38.5478 12.7015 37.7409 8.40813 35.0829 5.28511C34.3037 4.37654 33.4013 3.58193 32.4003 2.92283C31.307 2.22061 30.1181 1.67547 28.8708 1.3028C27.3401 0.850053 25.7693 0.529743 24.1832 0.351109C22.2829 0.138596 20.3733 0.0277191 18.4607 0.0246392C18.3344 0.0246392 18.2082 0.0246392 18.0819 0.0246392" fill="#272963"/>
<path d="M67.764 58.9278C67.7579 62.0477 70.2834 64.5825 73.4064 64.5886C76.5264 64.5948 79.0611 62.0693 79.0673 58.9462C79.0734 55.8263 76.5479 53.2946 73.4249 53.2885C70.3019 53.2823 67.7702 55.8078 67.764 58.9308" fill="#E25F26"/>
</g>
<defs>
<clipPath id="clip0_36_2328">
<rect width="78.134" height="70" fill="white" transform="translate(0.932983)"/>
</clipPath>
</defs>
</svg>
